<?xml version="1.0" encoding="UTF-8" standalone="no"?>
<svg
   xmlns:dc="http://purl.org/dc/elements/1.1/"
   xmlns:cc="http://creativecommons.org/ns#"
   xmlns:rdf="http://www.w3.org/1999/02/22-rdf-syntax-ns#"
   xmlns:svg="http://www.w3.org/2000/svg"
   xmlns="http://www.w3.org/2000/svg"
   xmlns:sodipodi="http://sodipodi.sourceforge.net/DTD/sodipodi-0.dtd"
   xmlns:inkscape="http://www.inkscape.org/namespaces/inkscape"
   id="Layer_2"
   data-name="Layer 2"
   viewBox="0 0 110 55"
   version="1.1"
   sodipodi:docname="hbo.svg"
   width="110"
   height="55"
   inkscape:version="0.92.3 (2405546, 2018-03-11)">
  <metadata
     id="metadata20">
    <rdf:RDF>
      <cc:Work
         rdf:about="">
        <dc:format>image/svg+xml</dc:format>
        <dc:type
           rdf:resource="http://purl.org/dc/dcmitype/StillImage" />
      </cc:Work>
    </rdf:RDF>
  </metadata>
  <sodipodi:namedview
     pagecolor="#ffffff"
     bordercolor="#666666"
     borderopacity="1"
     objecttolerance="10"
     gridtolerance="10"
     guidetolerance="10"
     inkscape:pageopacity="0"
     inkscape:pageshadow="2"
     inkscape:window-width="640"
     inkscape:window-height="480"
     id="namedview18"
     showgrid="false"
     inkscape:zoom="2.4912281"
     inkscape:cx="56"
     inkscape:cy="26.5"
     inkscape:window-x="0"
     inkscape:window-y="0"
     inkscape:window-maximized="0"
     inkscape:current-layer="Layer_2" />
  <defs
     id="defs4">
    <style
       id="style2">.cls-1{fill:#fff;}</style>
  </defs>
  <title
     id="title6">Artboard 5 copy</title>
  <rect
     x="0"
     y="0"
     width="110"
     height="55"
     id="rect8" />
  <g
     id="path3"
     transform="translate(-1,-1)">
    <path
       class="cls-1"
       d="m 54.63,16.71 c 1.71,0 6.58,0.93 6.58,5.72 0,3.86 -1.84,5 -3.29,5.26 -1.05,0.2 3,0 3,4.83 0,6.84 -5.92,6.58 -5.92,6.58 H 45.15 V 16.71 Z m -3.95,5.46 v 3.38 H 54 a 1.62,1.62 0 0 0 1.32,-1.78 C 55.32,22.15 54,22.16 54,22.16 Z m 0,8.25 v 3.42 H 54 c 0,0 1.32,-0.13 1.32,-1.84 A 1.39,1.39 0 0 0 54,30.42 Z M 27.52,16.71 v 22.4 h 6.18 v -8.29 h 3.95 v 8.29 h 6.18 v -22.4 h -6.18 v 8.45 H 33.7 v -8.45 z"
       id="path10"
       inkscape:connector-curvature="0"
       style="fill:#ffffff" />
  </g>
  <path
     class="cls-1"
     d="M 70.6,38.37 A 11.45,11.45 0 1 1 82,26.92 11.46,11.46 0 0 1 70.6,38.37 Z m 0,-17.1 a 5.66,5.66 0 1 0 5.66,5.66 5.66,5.66 0 0 0 -5.66,-5.66 z"
     id="path13"
     inkscape:connector-curvature="0"
     style="fill:#ffffff" />
  <circle
     class="cls-1"
     cx="70.599998"
     cy="26.92"
     r="4.6100001"
     id="circle15"
     style="fill:#ffffff" />
</svg>
