<svg xmlns="http://www.w3.org/2000/svg" width="422" height="320"><defs><linearGradient id="a" x1="26.66%" x2="74.274%" y1="0%" y2="101%"><stop offset="0%" stop-color="#A39AFF"/><stop offset="100%" stop-color="#94FCB0"/></linearGradient><filter id="b" width="154.5%" height="137.3%" x="-27.3%" y="-18.6%" filterUnits="objectBoundingBox"><feGaussianBlur in="SourceGraphic" stdDeviation="20"/></filter></defs><g transform="translate(45 45)" fill="none" fill-rule="evenodd"><ellipse cx="166" cy="115" fill="url(#a)" filter="url(#b)" opacity=".063" rx="110" ry="161" transform="rotate(90 166 115)"/><path fill="#43ABDA" d="M37.226 86.748c.164 0 .35.054.55.182 10.929 7.008 24.448 11.231 38.411 11.231 9.423 0 19.775-2.157 29.305-6.611 1.434-.67 2.638 1.042 1.232 2.191-8.499 6.91-20.82 10.587-31.43 10.587-14.869 0-28.258-6.06-38.393-16.144a1.105 1.105 0 0 1-.333-.617v-.239a.657.657 0 0 1 .658-.58zm71.113-.92c2.592 0 4.684.567 5.13 1.175.937 1.266-.24 10.04-4.803 14.226-.698.648-1.361.3-1.054-.546 1.026-2.808 3.322-9.11 2.233-10.638-1.086-1.53-7.185-.731-9.92-.369-.424.056-.665-.121-.702-.386v-.142c.03-.229.187-.497.491-.73 2.514-1.942 5.854-2.59 8.625-2.59z"/><path fill="#FFF" d="M127.715 68.96c-1.793 0-2.83 1.138-3.108 3.416.745.156 1.578.23 2.492.23.95 0 1.642-.149 2.072-.449.429-.296.644-.756.644-1.372 0-1.218-.7-1.826-2.1-1.826zm-.39 6.253c-1.065 0-1.99-.106-2.774-.318.11 1.293.49 2.22 1.135 2.778.645.56 1.619.84 2.925.84.522 0 1.033-.034 1.528-.104.492-.064 1.18-.217 2.058-.446a1.117 1.117 0 0 1 .305-.059c.32 0 .479.222.479.668v1.333c0 .305-.045.522-.128.65-.084.124-.246.237-.49.332-1.362.54-2.81.81-4.34.81-2.316 0-4.09-.654-5.334-1.969-1.24-1.314-1.861-3.195-1.861-5.646 0-2.508.634-4.477 1.903-5.904 1.27-1.43 3.033-2.144 5.291-2.144 1.735 0 3.096.434 4.075 1.301.979.87 1.469 2.029 1.469 3.476 0 1.449-.528 2.544-1.58 3.286-1.055.745-2.61 1.116-4.661 1.116zm15.773 3.345c2.003 0 3.004-1.563 3.004-4.693 0-3.11-1.001-4.663-3.004-4.663-2 0-3.003 1.553-3.003 4.663 0 3.13 1.003 4.693 3.003 4.693zm0 3.306c-2.268 0-4.041-.703-5.318-2.108-1.28-1.41-1.917-3.372-1.917-5.891 0-2.499.638-4.453 1.917-5.86 1.277-1.406 3.05-2.112 5.318-2.112 2.27 0 4.044.706 5.321 2.112 1.277 1.407 1.917 3.361 1.917 5.86 0 2.52-.64 4.482-1.917 5.89-1.277 1.406-3.052 2.109-5.321 2.109zm-32.075-3.365c.914 0 1.793-.274 2.631-.827v-7.793c-.82-.491-1.764-.738-2.831-.738-1.011 0-1.764.39-2.26 1.167-.497.779-.745 1.952-.745 3.529 0 1.574.263 2.745.786 3.512.526.767 1.332 1.15 2.419 1.15zm-1.372 3.247c-1.242 0-2.32-.328-3.234-.987-.916-.66-1.616-1.574-2.103-2.745-.485-1.172-.73-2.525-.73-4.06 0-2.44.564-4.394 1.69-5.86 1.125-1.467 2.612-2.2 4.46-2.2 1.508 0 2.814.443 3.92 1.328v-6.906c0-.277.058-.468.171-.576.116-.11.295-.163.545-.163h2.745c.268 0 .454.054.558.163.105.108.157.299.157.576v20.368c0 .255-.052.444-.157.56-.104.119-.29.18-.558.18h-2.289c-.227 0-.405-.051-.527-.148-.124-.1-.216-.267-.272-.502l-.173-.68c-1.182 1.102-2.583 1.652-4.203 1.652zm-10.9-17.74c-.724 0-1.306-.209-1.745-.62-.438-.413-.657-.974-.657-1.683 0-.71.22-1.27.657-1.682.44-.415 1.021-.621 1.745-.621.727 0 1.307.206 1.744.621.44.411.66.972.66 1.682s-.22 1.27-.66 1.683c-.437.411-1.017.62-1.744.62zm-1.374 17.417c-.246 0-.429-.06-.542-.178-.114-.117-.172-.306-.172-.56v-13.61c0-.274.058-.467.172-.576.113-.106.296-.162.542-.162h2.747c.268 0 .453.056.558.162.105.11.158.302.158.576v13.61c0 .254-.053.443-.158.56-.105.118-.29.178-.558.178h-2.747zm-11.347 0a1.33 1.33 0 0 1-.473-.074.761.761 0 0 1-.312-.236 1.765 1.765 0 0 1-.244-.458l-4.89-13.136a11.172 11.172 0 0 1-.143-.413 1.06 1.06 0 0 1-.06-.326c0-.295.192-.443.574-.443h2.86c.303 0 .529.058.672.177.142.118.254.314.33.592l2.945 10.45 3.003-10.45c.076-.278.186-.474.33-.592.143-.12.367-.177.672-.177h2.774c.383 0 .573.148.573.443 0 .099-.02.206-.057.326-.04.116-.087.255-.143.413l-4.892 13.136a1.765 1.765 0 0 1-.245.458.768.768 0 0 1-.298.236 1.282 1.282 0 0 1-.485.074h-2.49z"/><path fill="#43ABDA" d="M8.384 65.508c1.86 0 3.335.657 4.418 1.969 1.087 1.316 1.63 3.092 1.63 5.333 0 1.534-.269 2.878-.805 4.024-.54 1.149-1.27 2.033-2.189 2.65-.923.624-1.978.932-3.172.932a6.861 6.861 0 0 1-2.243-.362c-.711-.24-1.315-.57-1.815-.998v6.079c0 .26-.054.439-.158.543-.11.1-.294.15-.563.15H.72c-.25 0-.432-.05-.544-.15-.12-.104-.177-.284-.177-.543V66.617c0-.258.058-.439.177-.54.112-.104.294-.153.544-.153h2.077c.44 0 .708.204.804.61l.201.722c.575-.538 1.272-.962 2.089-1.278a6.903 6.903 0 0 1 2.492-.47zm60.404-.002c1.786 0 3.184.416 4.19 1.25 1.008.833 1.513 1.944 1.513 3.33 0 1.391-.544 2.44-1.626 3.153-1.084.713-2.684 1.068-4.797 1.068-1.095 0-2.044-.1-2.852-.305.116 1.24.505 2.13 1.168 2.666.662.535 1.666.804 3.01.804.537 0 1.06-.031 1.57-.097.508-.063 1.214-.208 2.117-.428a.994.994 0 0 1 .173-.043.854.854 0 0 1 .143-.015c.327 0 .49.214.49.64v1.277c0 .294-.043.502-.128.626-.088.118-.256.225-.505.317a12.814 12.814 0 0 1-4.466.778c-2.383 0-4.21-.628-5.486-1.889-1.277-1.26-1.915-3.063-1.915-5.414 0-2.406.653-4.293 1.96-5.661 1.304-1.372 3.12-2.057 5.44-2.057zm-36.544.417c.27 0 .458.05.563.153.106.101.159.28.159.542v12.796c0 .243-.053.419-.159.528-.105.111-.292.168-.563.168h-2.763c-.25 0-.43-.057-.548-.168-.114-.11-.172-.285-.172-.528V66.618c0-.261.058-.44.172-.542.117-.103.298-.153.548-.153h2.763zm-6.266-.138c.269 0 .46.05.575.152.116.103.172.284.172.54v2.334c0 .24-.051.414-.156.529-.106.109-.293.164-.562.164a6.35 6.35 0 0 1-.519-.027 9.868 9.868 0 0 0-.807-.028c-.441 0-.977.06-1.613.18-.634.122-1.17.273-1.612.46v9.328c0 .24-.053.414-.157.528-.109.11-.294.165-.563.165h-2.765c-.25 0-.432-.056-.546-.165-.118-.114-.176-.289-.176-.528V66.619c0-.26.058-.442.176-.543.114-.101.296-.154.546-.154h2.073c.44 0 .71.204.808.612l.374 1.499c.765-.814 1.492-1.393 2.174-1.736a4.8 4.8 0 0 1 2.175-.512h.403zm28.754-.28c1.345 0 2.388.363 3.126 1.083.74.724 1.109 1.732 1.109 3.029v9.8c0 .24-.053.415-.157.526-.107.113-.294.165-.563.165h-2.764c-.251 0-.432-.052-.547-.165-.116-.11-.174-.285-.174-.526v-8.911c0-1.26-.585-1.89-1.757-1.89-1.037 0-2.083.24-3.14.722v10.079c0 .24-.052.415-.158.526-.105.113-.292.165-.563.165H46.38c-.248 0-.432-.052-.546-.165-.117-.11-.171-.285-.171-.526v-8.911c0-1.26-.589-1.89-1.757-1.89-1.077 0-2.132.249-3.17.75v10.05c0 .242-.055.416-.16.527-.106.113-.292.165-.559.165H37.25c-.248 0-.432-.052-.546-.165-.114-.11-.173-.285-.173-.526v-12.8c0-.26.06-.44.173-.54.114-.104.298-.153.546-.153h2.075c.44 0 .71.204.805.612l.23.748c1.02-.647 1.936-1.107 2.751-1.375a8.058 8.058 0 0 1 2.523-.404c1.726 0 2.946.593 3.656 1.78.978-.632 1.9-1.084 2.764-1.361a8.672 8.672 0 0 1 2.678-.42zM7.03 68.56c-.997 0-1.94.252-2.822.748v7.303c.844.502 1.784.752 2.822.752 1.075 0 1.866-.35 2.376-1.057.508-.703.764-1.812.764-3.33 0-1.537-.25-2.655-.75-3.36-.5-.704-1.297-1.056-2.39-1.056zm61.441-.249c-1.845 0-2.91 1.092-3.196 3.276.768.15 1.623.222 2.564.222.976 0 1.689-.142 2.13-.431.441-.286.663-.724.663-1.318 0-1.166-.722-1.749-2.16-1.749zM30.861 59.4c.732 0 1.315.194 1.758.582.442.389.663.915.663 1.582 0 .666-.221 1.193-.663 1.584-.443.388-1.026.583-1.757.583-.73 0-1.315-.195-1.757-.583-.443-.391-.66-.918-.66-1.584 0-.667.217-1.193.66-1.582.442-.388 1.027-.582 1.757-.582z"/><path fill="#FFF" stroke="#FFF" stroke-width=".933" d="M94.273 122.14c8.682 0 15.745 7.087 15.745 15.794 0 8.71-7.063 15.795-15.745 15.795-6.673 0-12.39-4.186-14.679-10.077.013.204.019.417.019.636 0 9.32-7.935 9.085-8.139 9.078H57.896v-30.898h13.031c2.352 0 9.05 1.289 9.05 7.898 0 .36-.013.702-.035 1.028 2.484-5.454 7.974-9.253 14.331-9.253zm-52.122.328v11.655h5.43v-11.655h8.505v30.898H47.58v-11.438h-5.429v11.438h-8.505v-30.898h8.505zm27.894 18.917h-4.548v4.72h4.525s1.81-.183 1.81-2.542c0-2.034-1.577-2.17-1.787-2.178zm24.228-11.256c-4.291 0-7.782 3.502-7.782 7.805 0 4.304 3.49 7.806 7.782 7.806s7.781-3.502 7.781-7.806c0-4.303-3.49-7.805-7.78-7.805zm-.02 2.094c3.108 0 5.629 2.607 5.629 5.82s-2.52 5.82-5.63 5.82c-3.108 0-5.629-2.607-5.629-5.82s2.521-5.82 5.63-5.82zm-15.54 3.284l-.038.057c-.908 1.312-2.145 1.865-3.224 2.062-1.076.203 1.75.104 3.27 2.78a15.892 15.892 0 0 1-.008-4.899zm-8.685-5.505h-4.531v4.666h4.525s1.81-.218 1.81-2.452c0-2.158-1.691-2.213-1.804-2.214z"/><path fill="#FFF" d="M191.987 59.698c3.467 0 6.49 1.065 9.125 3.164l-2.123 4.286c-.799-.676-3.763-2.95-7.071-2.95-2.167 0-3.622.998-3.622 2.565 0 1.88 1.454 2.542 5.553 3.51 5.749 1.392 8.093 3.577 8.093 7.47 0 4.729-3.565 7.688-9.083 7.688-3.753 0-7.29-1.3-10.193-3.781l2.085-4.448c2.798 2.598 5.234 3.73 8.212 3.73 2.412 0 3.972-1.036 3.972-2.773 0-1.466-.784-2.348-5.238-3.371-5.326-1.28-8.409-2.918-8.409-7.68 0-4.355 3.577-7.41 8.699-7.41zm38.847.31l12.675 25h-5.301l-1.97-3.884h-10.814l-1.963 3.885h-5.233l12.606-25zm23.266.115c2.628 0 4.841.749 6.402 2.166 1.507 1.37 2.304 3.252 2.304 5.442 0 1.796-.518 5.061-3.996 6.84l-.289.14 5.94 10.298h-5.825l-5.25-9.076h-3.62v9.076h-5.08V60.123h9.414zm-31.402 0v4.564h-7.405v20.321h-5.079V64.687h-7.407v-4.565h19.891zm64.607 0l-12.826 20.322h12.563v4.563h-21.405l12.826-20.324h-11.81v-4.562h20.652zm-56.471 10.339l-3.093 6.102h6.184l-3.091-6.102zm22.629-5.776h-3.697v6.373h3.697c2.647 0 4.229-1.137 4.229-3.199 0-2.078-1.503-3.174-4.23-3.174z"/><path fill="#E50914" d="M299.7 110.457l-8.694 21.23 8.694 23.408c-2.57-.35-5.14-.829-7.71-1.265l-4.926-12.903-5.011 11.857c-2.484-.436-4.882-.568-7.366-.916l8.824-20.443-7.969-20.968h7.368l4.496 11.726 4.8-11.726h7.494zm-36.75 40.54c2.186.132 4.499.26 6.725.522v-41.062h-6.725v40.54zm-17.431-7.978c3.897.087 7.837.395 11.648.61v6.889c-6.123-.392-12.25-.787-18.502-.916v-39.145h6.854v32.562zm-23.557-16.695h9.378v6.975h-9.378v15.824h-6.725v-38.666h19.146v6.975h-12.421v8.892zm-11.136-8.892h-7.11v32.083c-2.315 0-4.628 0-6.854.087v-32.17h-7.11v-6.975h21.074v6.975zm-37.607 9.373c2.655 0 6.724-.131 9.166-.131v6.972c-3.04 0-6.595 0-9.166.132v10.376c4.026-.261 8.053-.613 12.122-.742v6.712l-18.976 1.526v-41.193h18.976v6.975H173.22v9.373zm-13.492 25.411c-2.441.437-4.926.568-7.494.916l-7.84-23.363v24.368c-2.442.26-4.668.608-6.98.958v-44.638h6.51l8.909 25.327v-25.327h6.895v41.76z"/><path fill="#1DE783" d="M136.726 189.864v17.95c0 1.5 1.219 2.727 2.708 2.727h3.986c1.49 0 2.708-1.226 2.708-2.726v-17.951h8.21v20.755c0 4.94-4.017 8.981-8.925 8.981h-7.97c-4.91 0-8.924-4.041-8.924-8.98v-20.756h8.207zm47.417 0v17.95c0 1.5 1.219 2.727 2.708 2.727h3.986c1.491 0 2.71-1.226 2.71-2.726v-17.951h8.207v20.755c0 4.94-4.016 8.981-8.926 8.981h-7.968c-4.908 0-8.926-4.041-8.926-8.98v-20.756h8.209zM169.24 176v43.597h-8.209V176h8.209zm-64.868 0v14.456c.656-.382 1.513-.592 2.629-.592h6.296c4.908 0 8.924 4.04 8.924 8.977v20.756h-8.207v-17.63c0-1.5-1.22-2.725-2.71-2.725h-4.224c-1.49 0-2.708 1.225-2.708 2.725v17.63h-8.209V176h8.209z"/><path fill="#ED1B25" d="M137.846 7.928V19.59h-5.374V7.938h-4.989c-.007.129-.016.227-.016.327-.002 9.442 0 18.883-.008 28.324 0 .303.091.381.379.378 1.433-.012 2.864-.004 4.297-.006.106 0 .213-.015.353-.026V24.396h5.364v.466c0 3.893.006 7.786-.007 11.682-.002.354.106.43.432.425 1.387-.017 2.775-.006 4.163-.008.13 0 .26-.012.4-.02V7.928h-4.994zm14.167-.63c-.217.055-.34.087-.463.12-1.38.368-2.427 1.23-3.296 2.335-1.231 1.568-1.966 3.38-2.47 5.296-.771 2.938-.978 5.933-.825 8.962.118 2.359.488 4.668 1.294 6.891.667 1.837 1.576 3.525 3.043 4.844.346.31.73.59 1.13.827.39.23.819.388 1.285.604-3.877 4.052-8.557 6.414-14.126 6.867-8.201.67-14.47-3.288-17.753-7.104.508-.132 1.054-.204 1.544-.413 2.039-.86 3.312-2.468 3.88-4.565.885-3.274.155-6.23-2.058-8.785-1.063-1.23-2.39-2.145-3.678-3.102-1.039-.772-2.087-1.537-2.862-2.605-.862-1.188-1.184-2.509-.832-3.952.312-1.28 1.337-1.904 2.537-1.591.609.157.986.58 1.233 1.138.334.752.415 1.558.461 2.368.016.278.003.557.003.861h4.684c0-.402.017-.814-.003-1.224-.062-1.375-.241-2.73-.721-4.03-.719-1.94-2.041-3.2-4.042-3.7-.073-.017-.145-.038-.292-.077 4.218-4.563 9.337-7.097 15.45-7.254 6.642-.17 12.313 2.179 16.877 7.288zm26.897 1.056c.066.01.134.002.2.002h21.72c.008.146.02.276.02.406.001 9.116 0 18.23.007 27.347 0 .317-.076.426-.404.423a150.58 150.58 0 0 0-4.23 0c-.35.005-.417-.113-.417-.441.01-7.63.008-15.261.008-22.892 0-.493 0-.526-.422-.528h-3.794c-.455 0-.488 0-.49.39v.098c0 7.564 0 15.126-.002 22.687 0 .733.093.68-.56.677h-.116c-1.31.005-2.62-.01-3.93.01-.334.004-.43-.09-.43-.436.011-6.988.01-13.978.01-20.966 0-.63.001-1.26-.002-1.89-.002-.586.059-.573-.438-.57h-3.438c-.078 0-.155.005-.233 0-.195-.016-.265.072-.29.27-.442 3.49-.889 6.976-1.34 10.464-.499 3.878-1.005 7.755-1.508 11.633-.052.4-.11.802-.143 1.204-.018.22-.113.286-.318.284a511.698 511.698 0 0 0-4.03 0c-.204.002-.28-.063-.31-.282-.481-3.62-.973-7.238-1.464-10.856a5852.24 5852.24 0 0 0-.869-6.412c-.015-.097-.049-.192-.073-.288l-.076-.004c-.062.403-.127.804-.185 1.207l-1.12 7.909c-.385 2.747-.772 5.495-1.155 8.243-.067.48-.06.48-.544.482-1.209 0-2.42-.005-3.63.003-.225.001-.327-.05-.358-.304-.225-1.806-.47-3.61-.708-5.415l-.826-6.316-.772-5.882c-.278-2.116-.555-4.233-.834-6.349-.162-1.236-.328-2.474-.489-3.708-.006-.053.005-.11.008-.18h4.54c.597 5.493 1.195 10.993 1.791 16.493.04.001.08.003.118.006l2.418-16.5h4.549l2.21 16.507.104.008c.033-.16.079-.32.098-.484.288-2.386.574-4.774.859-7.162.276-2.321.547-4.641.822-6.964.065-.558.138-1.115.198-1.673.02-.177.08-.273.268-.25zm42.525.02v28.121c-.135.011-.264.028-.392.028-1.222.001-2.442-.01-3.664.009-.334.004-.427-.09-.427-.434.01-6.595.008-13.19.008-19.783v-.417c-.033-.001-.067-.006-.1-.009-.064.343-.131.688-.19 1.032-.92 5.551-1.836 11.1-2.756 16.652-.148.885-.309 1.77-.443 2.658-.034.234-.128.298-.343.295a78.48 78.48 0 0 0-2.232.003c-.23.003-.307-.097-.34-.306-.556-3.436-1.116-6.871-1.677-10.308-.535-3.28-1.072-6.56-1.609-9.84-.01-.062-.04-.121-.146-.18v20.18c0 .446-.001.448-.426.448-.954.001-1.91-.012-2.864.007-.324.008-.43-.07-.43-.426.014-4.67.01-9.34.01-14.011V8.376h6.7c.761 4.808 1.523 9.605 2.284 14.403l.119.009 2.364-14.415h6.554zm13.991.005v4.282h-6.362v7.243h4.69v4.584h-4.697v7.71h6.636c.01.141.02.238.02.336.002 1.215-.004 2.432.008 3.647.003.263-.071.348-.335.348-3.686-.008-7.371-.005-11.057-.007-.097 0-.193-.016-.308-.025V8.379h11.405zm-121.29 13.373c.456.37.901.751 1.367 1.108 1.182.911 2.404 1.773 3.55 2.726 1.197.993 1.751 2.322 1.672 3.901-.031.626-.17 1.223-.507 1.758-.683 1.083-1.94 1.375-3.016.692-.647-.411-1.088-1.017-1.453-1.68-.768-1.394-1.174-2.912-1.381-4.476-.174-1.322-.245-2.658-.362-3.988.043-.012.088-.027.13-.04zm40.152-9.549c.554.14.954.512 1.282.966.738 1.018 1.105 2.196 1.388 3.402.484 2.064.744 4.159.666 6.282-.086 2.312-.381 4.595-1.333 6.728a6.896 6.896 0 0 1-1.069 1.69c-.818.939-1.932.948-2.853.107-.671-.612-1.063-1.402-1.38-2.238-.591-1.567-.853-3.205-.99-4.866-.063-.772-.08-1.55-.102-1.99.015-2.72.23-5.077 1.11-7.312.272-.69.664-1.35 1.11-1.94.526-.696 1.266-1.057 2.17-.829z"/><path fill="#40B7E7" d="M229.136 177.513c.591 0 1.139.11 1.642.328a2.92 2.92 0 0 1 1.215.953c.308.418.462.9.462 1.45 0 .597-.127 1.105-.382 1.523-.254.417-.58.763-.976 1.038-.396.274-.89.548-1.482.822.071.112.35.492.834 1.14l.817 1.048a7.986 7.986 0 0 0 .976-2.188l2.148 1.066c-.497 1.122-1.054 2.088-1.669 2.898a93.02 93.02 0 0 0 1.757 2l.515.58h-3.408l-.71-.767a5.238 5.238 0 0 1-3.088.991c-1.172 0-2.136-.318-2.893-.953-.758-.636-1.136-1.546-1.136-2.73 0-.86.225-1.564.674-2.113.45-.548 1.065-1.028 1.846-1.44-.485-.959-.728-1.825-.728-2.598 0-.561.154-1.075.462-1.543a3.164 3.164 0 0 1 1.278-1.103c.544-.268 1.16-.402 1.846-.402zm33.733-.613c1.25 0 2.375.274 3.376.821a6.074 6.074 0 0 1 2.365 2.287c.575.977.863 2.088.863 3.333s-.288 2.355-.863 3.332a6.074 6.074 0 0 1-2.365 2.287c-1.001.548-2.127.822-3.376.822s-2.377-.274-3.385-.822a6.057 6.057 0 0 1-2.374-2.287c-.575-.977-.863-2.087-.863-3.332 0-1.245.288-2.356.863-3.333a6.057 6.057 0 0 1 2.374-2.287c1.008-.547 2.136-.821 3.385-.821zm-17.825.205l2.578 7.057 2.597-7.057h4.433v12.453h-3.19v-8.401l-3.135 8.4h-1.41l-3.116-8.4v8.4h-3.19v-12.452h4.433zm32.238 0c.89 0 1.66.18 2.31.542.649.36 1.143.855 1.483 1.484.34.629.51 1.335.51 2.119 0 .996-.244 1.808-.732 2.436-.489.629-1.067 1.061-1.735 1.298l2.523 4.574h-3.654l-2.078-4.22h-1.632v4.22h-3.19v-12.453h6.195zm15.136 0v2.707h-5.88v2.073h5.75v2.725h-5.75v2.24h5.88v2.708h-9.07v-12.453h9.07zm-65.184 8.02a2.218 2.218 0 0 0-.667 1.625c0 .555.152 1.009.456 1.36.304.353.667.529 1.088.529.41 0 .831-.143 1.264-.427l-1.106-1.503a69.482 69.482 0 0 1-1.035-1.584zm35.635-5.387c-.667 0-1.258.158-1.771.476-.513.317-.909.75-1.187 1.297a3.98 3.98 0 0 0-.417 1.83c0 .672.139 1.282.417 1.83.278.547.674.98 1.187 1.297.513.317 1.104.476 1.771.476.668 0 1.256-.159 1.763-.476.507-.317.9-.75 1.177-1.297a3.98 3.98 0 0 0 .418-1.83 3.98 3.98 0 0 0-.418-1.83 3.218 3.218 0 0 0-1.177-1.297c-.507-.318-1.095-.476-1.763-.476zm13.93.074h-2.522v2.8h2.523c.432 0 .797-.127 1.094-.382.297-.255.445-.594.445-1.017 0-.424-.148-.763-.445-1.018-.297-.255-.662-.383-1.094-.383zm-47.318.044c-.353 0-.646.093-.88.28a.877.877 0 0 0-.35.716c0 .396.17.845.51 1.346.55-.21.978-.437 1.282-.682.304-.245.456-.53.456-.856a.7.7 0 0 0-.286-.586c-.191-.146-.435-.218-.732-.218z"/></g></svg>